<?xml version="1.0"?>
<svg xmlns:rdf="http://www.w3.org/1999/02/22-rdf-syntax-ns#" xmlns="http://www.w3.org/2000/svg" xmlns:cc="http://creativecommons.org/ns#" xmlns:xlink="http://www.w3.org/1999/xlink" xmlns:dc="http://purl.org/dc/elements/1.1/" xmlns:svg="http://www.w3.org/2000/svg" id="svg2" viewBox="0 0 36 36">
  <defs id="defs4">
    <linearGradient id="linearGradient1375" y2="57.588" gradientUnits="userSpaceOnUse" x2="27.494" gradientTransform="matrix(.58147 -.58147 .58147 .58147 -5.2146 32.001)" y1="6.2061" x1="36.304">
      <stop id="stop1354" stop-color="#179807" offset="0"/>
      <stop id="stop1356" stop-color="#0b5102" offset="1"/>
    </linearGradient>
    <linearGradient id="linearGradient1377" y2="57.789" gradientUnits="userSpaceOnUse" x2="27.574" gradientTransform="matrix(.58147 -.58147 .58147 .58147 -5.2092 32)" y1="6.1829" x1="36.464">
      <stop id="stop1367" stop-color="#24f00a" offset="0"/>
      <stop id="stop1370" stop-color="#0b6400" offset="1"/>
    </linearGradient>
    <linearGradient id="linearGradient1379" y2="49.282" gradientUnits="userSpaceOnUse" x2="27.469" gradientTransform="matrix(.58147 -.58147 .58147 .58147 -5.2141 32)" y1="19.206" x1="32.683">
      <stop id="stop1380" stop-color="#b0ffa5" offset="0"/>
      <stop id="stop1382" stop-color="#26bc14" stop-opacity=".44706" offset="1"/>
    </linearGradient>
  </defs>
  <g id="layer1">
    <g id="g1370" transform="translate(-14 -14)">
      <path id="path1349" fill="url(#linearGradient1375)" d="m14.501 35.392c0.05 0.543 0.508 0.956 1.053 0.951h12.104v12.103c-0.002 0.28 0.109 0.549 0.307 0.747s0.467 0.308 0.746 0.307h6.579c0.28 0.001 0.548-0.109 0.746-0.307s0.309-0.467 0.308-0.747v-12.103h12.103c0.28 0.001 0.549-0.109 0.747-0.307 0.197-0.198 0.308-0.467 0.307-0.747v-6.578c0.001-0.28-0.11-0.549-0.307-0.747-0.198-0.198-0.467-0.308-0.747-0.307h-12.103v-12.103c0.001-0.28-0.11-0.549-0.308-0.747s-0.466-0.308-0.746-0.307h-6.579c-0.279-0.001-0.548 0.109-0.746 0.307s-0.309 0.467-0.307 0.747v12.103h-12.104c-0.28-0.001-0.548 0.109-0.746 0.307s-0.309 0.467-0.307 0.747v6.578c-0.002 0.035-0.002 0.069 0 0.103z"/>
      <path id="path1468" fill="url(#linearGradient1377)" d="m15.43 28.874c-0.087 0.148-0.129 0.318-0.123 0.49v5.272c0.003 0.495 0.404 0.896 0.899 0.899h12.26v12.259c0.002 0.496 0.403 0.897 0.899 0.899h5.271c0.496-0.002 0.897-0.403 0.899-0.899v-12.259h12.259c0.496-0.003 0.897-0.404 0.9-0.899v-5.272c-0.003-0.495-0.404-0.896-0.9-0.899h-12.259v-12.259c-0.002-0.496-0.403-0.897-0.899-0.899h-5.271c-0.496 0.002-0.897 0.403-0.899 0.899v12.259h-12.26c-0.312-0.007-0.605 0.148-0.776 0.409z"/>
      <path id="path1472" fill="url(#linearGradient1379)" d="m15.981 29.262c-0.014 0.032-0.021 0.067-0.02 0.102v5.272c0.002 0.044 0.016 0.086 0.041 0.122 0.022 0.044 0.058 0.08 0.102 0.103 0.032 0.014 0.067 0.021 0.102 0.02h12.504c0.113-0.003 0.232 0.028 0.307 0.102 0.074 0.075 0.105 0.194 0.102 0.307v12.504c0.002 0.044 0.016 0.086 0.041 0.123 0.023 0.044 0.058 0.079 0.102 0.102 0.032 0.014 0.067 0.021 0.102 0.02h5.272c0.044-0.002 0.086-0.016 0.122-0.041 0.044-0.022 0.08-0.058 0.103-0.102 0.014-0.032 0.021-0.067 0.02-0.102v-12.504c-0.003-0.113 0.028-0.232 0.102-0.307 0.075-0.074 0.194-0.105 0.307-0.102h12.504c0.044-0.002 0.086-0.016 0.123-0.041 0.044-0.023 0.079-0.058 0.102-0.102 0.014-0.032 0.021-0.067 0.02-0.102v-5.272c-0.002-0.044-0.016-0.086-0.041-0.122-0.022-0.044-0.058-0.08-0.102-0.103-0.032-0.014-0.067-0.021-0.102-0.02h-12.504c-0.113 0.003-0.232-0.028-0.307-0.102-0.074-0.075-0.105-0.194-0.102-0.307v-12.504c-0.002-0.044-0.016-0.086-0.041-0.123-0.023-0.044-0.058-0.079-0.102-0.102-0.032-0.014-0.067-0.021-0.102-0.02h-5.272c-0.044 0.002-0.086 0.016-0.122 0.041-0.044 0.022-0.08 0.058-0.103 0.102-0.014 0.032-0.021 0.067-0.02 0.102v12.504c0.003 0.113-0.028 0.232-0.102 0.307-0.075 0.074-0.194 0.105-0.307 0.102h-12.504c-0.044 0.002-0.086 0.016-0.123 0.041-0.044 0.023-0.079 0.058-0.102 0.102z"/>
    </g>
  </g>
  <metadata>
    <rdf:RDF>
      <cc:Work>
        <dc:format>image/svg+xml</dc:format>
        <dc:type rdf:resource="http://purl.org/dc/dcmitype/StillImage"/>
        <cc:license rdf:resource="http://creativecommons.org/licenses/publicdomain/"/>
        <dc:publisher>
          <cc:Agent rdf:about="http://openclipart.org/">
            <dc:title>Openclipart</dc:title>
          </cc:Agent>
        </dc:publisher>
        <dc:title>add</dc:title>
        <dc:date>2008-05-26T11:24:31</dc:date>
        <dc:description>add, add, clip art, clipart, icon, icon, image, media, plus, plus, png, public domain, svg, </dc:description>
        <dc:source>http://openclipart.org/detail/16950/add-by-jean_victor_balin</dc:source>
        <dc:creator>
          <cc:Agent>
            <dc:title>jean_victor_balin</dc:title>
          </cc:Agent>
        </dc:creator>
        <dc:subject>
          <rdf:Bag>
            <rdf:li>add</rdf:li>
            <rdf:li>clip art</rdf:li>
            <rdf:li>clipart</rdf:li>
            <rdf:li>icon</rdf:li>
            <rdf:li>image</rdf:li>
            <rdf:li>media</rdf:li>
            <rdf:li>plus</rdf:li>
            <rdf:li>png</rdf:li>
            <rdf:li>public domain</rdf:li>
            <rdf:li>svg</rdf:li>
          </rdf:Bag>
        </dc:subject>
      </cc:Work>
      <cc:License rdf:about="http://creativecommons.org/licenses/publicdomain/">
        <cc:permits rdf:resource="http://creativecommons.org/ns#Reproduction"/>
        <cc:permits rdf:resource="http://creativecommons.org/ns#Distribution"/>
        <cc:permits rdf:resource="http://creativecommons.org/ns#DerivativeWorks"/>
      </cc:License>
    </rdf:RDF>
  </metadata>
</svg>
