<?xml version="1.0"?>
<svg xmlns:rdf="http://www.w3.org/1999/02/22-rdf-syntax-ns#" xmlns="http://www.w3.org/2000/svg" xmlns:cc="http://web.resource.org/cc/" xmlns:xlink="http://www.w3.org/1999/xlink" xmlns:dc="http://purl.org/dc/elements/1.1/" xmlns:svg="http://www.w3.org/2000/svg" id="svg2046" viewBox="0 0 159.61 159.61" version="1.0">
  <defs id="defs2048">
    <linearGradient id="linearGradient2109" x1="264.58" gradientUnits="userSpaceOnUse" y1="296.37" gradientTransform="matrix(.31227 0 0 .32049 127.55 434.38)" x2="380.68" y2="553.74">
      <stop id="stop5192" stop-color="#fff" offset="0"/>
      <stop id="stop5194" stop-color="#f00" offset="1"/>
    </linearGradient>
    <linearGradient id="linearGradient2107" x1="249.48" gradientUnits="userSpaceOnUse" y1="262.87" gradientTransform="matrix(-.30163 .080822 -.082949 -.30957 402.86 730.11)" x2="272.03" y2="427.54">
      <stop id="stop5199" stop-color="#fff" offset="0"/>
      <stop id="stop5201" stop-color="#f00" offset="1"/>
    </linearGradient>
  </defs>
  <g id="layer1" transform="translate(-311.62 -429.7)">
    <g id="g2100" transform="matrix(.9 0 0 .9 170.44 -31.113)">
      <path id="path2174" d="m634.29 559.51a250 250 0 1 1 -500 0 250 250 0 1 1 500 0z" fill-rule="evenodd" transform="matrix(.30686 0 0 .30686 127.62 429)" stroke="#cb0000" stroke-width="20.128" fill="red"/>
      <path id="path2540" fill-rule="evenodd" fill="url(#linearGradient2107)" d="m264.19 668.93c19.05-5.1 34.17-17.66 43.23-33.82 14.71-34.82-40.17 46.7-85.49 31.89 13.17 4.83 27.81 5.8 42.26 1.93z"/>
      <path id="path2197" fill-rule="evenodd" fill="url(#linearGradient2109)" d="m245.66 529.36c-39.44 0-71.44 32.85-71.44 73.32 0 5.48 0.6 10.81 1.71 15.94 39.21-75.47 81.45-27.96 135.91-43.55-10.64-26.8-36.26-45.71-66.18-45.71z"/>
      <path id="text2705" opacity=".73529" fill="#fff" d="m267.42 640.04l-21.68-21.68-21.88 21.88-17.87-17.87 21.88-21.89-21.68-21.68 17.4-17.4 21.68 21.68 21.95-21.95 17.88 17.88-21.96 21.95 21.68 21.68-17.4 17.4"/>
      <path id="text2713" d="m267.3 637.01l-21.59-21.59-21.76 21.76-14.9-14.91 21.76-21.75-21.59-21.59 14.51-14.51 21.58 21.59 21.82-21.81 14.9 14.9-21.81 21.81 21.58 21.59-14.5 14.51" fill="#fff"/>
    </g>
  </g>
  <metadata>
    <rdf:RDF>
      <cc:Work>
        <dc:format>image/svg+xml</dc:format>
        <dc:type rdf:resource="http://purl.org/dc/dcmitype/StillImage"/>
        <cc:license rdf:resource="http://creativecommons.org/licenses/publicdomain/"/>
        <dc:publisher>
          <cc:Agent rdf:about="http://openclipart.org/">
            <dc:title>Openclipart</dc:title>
          </cc:Agent>
        </dc:publisher>
        <dc:title>red round error warning icon</dc:title>
        <dc:date>2006-09-07T17:35:55</dc:date>
        <dc:description>a red round error or warning icon</dc:description>
        <dc:source>http://openclipart.org/detail/109/red-round-error-warning-icon-by-molumen</dc:source>
        <dc:creator>
          <cc:Agent>
            <dc:title>molumen</dc:title>
          </cc:Agent>
        </dc:creator>
        <dc:subject>
          <rdf:Bag>
            <rdf:li>button</rdf:li>
            <rdf:li>cancel</rdf:li>
            <rdf:li>clip art</rdf:li>
            <rdf:li>clipart</rdf:li>
            <rdf:li>delete</rdf:li>
            <rdf:li>error</rdf:li>
            <rdf:li>glossy</rdf:li>
            <rdf:li>icon</rdf:li>
            <rdf:li>negative</rdf:li>
            <rdf:li>red</rdf:li>
            <rdf:li>round</rdf:li>
            <rdf:li>stop</rdf:li>
            <rdf:li>warning</rdf:li>
          </rdf:Bag>
        </dc:subject>
      </cc:Work>
      <cc:License rdf:about="http://creativecommons.org/licenses/publicdomain/">
        <cc:permits rdf:resource="http://creativecommons.org/ns#Reproduction"/>
        <cc:permits rdf:resource="http://creativecommons.org/ns#Distribution"/>
        <cc:permits rdf:resource="http://creativecommons.org/ns#DerivativeWorks"/>
      </cc:License>
    </rdf:RDF>
  </metadata>
</svg>
